{"title":"WWE.TLC.2012.PPV.HDTV.x264-Anon","uid":7931191,"size":1699607727,"categoryP":"video","categoryS":"tv_shows","magnet":"?xt=urn:btih:40dd1e28887e4e2b8e4c6c5bb34eb8c5d88920e9&amp;dn=WWE.TLC.2012.PPV.HDTV.x264-Anon&amp;tr=udp%3A%2F%2Ftracker.openbittorrent.com%3A80&amp;tr=udp%3A%2F%2Fopen.demonii.com%3A1337&amp;tr=udp%3A%2F%2Ftracker.coppersurfer.tk%3A6969&amp;tr=udp%3A%2F%2Fexodus.desync.com%3A6969","seeders":4,"leechers":0,"uploader":"scene4all","files":-1,"time":1355723441,"description":"General\nComplete name                       : WWE.TLC.2012.PPV.HDTV.x264-Anon.mp4\nFormat                              : MPEG-4\nFormat profile                      : Base Media\nCodec ID                            : isom\nFile size                           : 1.58 GiB\nDuration                            : 2h 49mn\nOverall bit rate                    : 1 335 Kbps\nWriting application                 : Lavf54.0.100\n\nVideo\nID                                  : 1\nFormat                              : AVC\nFormat/Info                         : Advanced Video Codec\nFormat profile                      : &lt;a class=&quot;__cf_email__&quot; href=&quot;/cdn-cgi/l/email-protection&quot; data-cfemail=&quot;e0a8898788a0acd3ced0&quot;&gt;[email&amp;#160;protected]&lt;/a&gt;&lt;script cf-hash='f9e31' type=&quot;text/javascript&quot;&gt;\n/* &lt;![CDATA[ */!function(){try{var t=&quot;currentScript&quot;in document?document.currentScript:function(){for(var t=document.getElementsByTagName(&quot;script&quot;),e=t.length;e--;)if(t[e].getAttribute(&quot;cf-hash&quot;))return t[e]}();if(t&amp;&amp;t.previousSibling){var e,r,n,i,c=t.previousSibling,a=c.getAttribute(&quot;data-cfemail&quot;);if(a){for(e=&quot;&quot;,r=parseInt(a.substr(0,2),16),n=2;a.length-n;n+=2)i=parseInt(a.substr(n,2),16)^r,e+=String.fromCharCode(i);e=document.createTextNode(e),c.parentNode.replaceChild(e,c)}}}catch(u){}}();/* ]]&gt; */&lt;/script&gt;\nFormat settings, CABAC              : Yes\nFormat settings, ReFrames           : 4 frames\nCodec ID                            : avc1\nCodec ID/Info                       : Advanced Video Coding\nDuration                            : 2h 49mn\nBit rate mode                       : Variable\nBit rate                            : 1 199 Kbps\nWidth                               : 704 pixels\nHeight                              : 400 pixels\nDisplay aspect ratio                : 16:9\nFrame rate mode                     : Constant\nFrame rate                          : 25.000 fps\nColor space                         : YUV\nChroma subsampling                  : 4:2:0\nBit depth                           : 8 bits\nScan type                           : Progressive\nBits/(Pixel*Frame)                  : 0.170\nStream size                         : 1.42 GiB (90%)\nWriting library                     : x264 core 125 r2200 999b753\n\nAudio\nID                                  : 2\nFormat                              : AAC\nFormat/Info                         : Advanced Audio Codec\nFormat profile                      : LC\nCodec ID                            : 40\nDuration                            : 2h 49mn\nBit rate mode                       : Constant\nBit rate                            : 128 Kbps\nChannel(s)                          : 2 channels\nChannel positions                   : Front: L R\nSampling rate                       : 44.1 KHz\nCompression mode                    : Lossy\nStream size                         : 155 MiB (10%)","torrent":{"xt":"urn:btih:40dd1e28887e4e2b8e4c6c5bb34eb8c5d88920e9","amp;dn":"WWE.TLC.2012.PPV.HDTV.x264-Anon","amp;tr":["udp%3A%2F%2Ftracker.openbittorrent.com%3A80","udp%3A%2F%2Fopen.demonii.com%3A1337","udp%3A%2F%2Ftracker.coppersurfer.tk%3A6969","udp%3A%2F%2Fexodus.desync.com%3A6969"],"infoHash":"40dd1e28887e4e2b8e4c6c5bb34eb8c5d88920e9","infoHashBuffer":{"type":"Buffer","data":[64,221,30,40,136,126,78,43,142,76,108,91,179,78,184,197,216,137,32,233]},"announce":[],"urlList":[]}}